<?xml version="1.0" encoding="UTF-8"?>
<svg width="1441px" height="263px" viewBox="0 0 1441 263" version="1.1" xmlns="http://www.w3.org/2000/svg" xmlns:xlink="http://www.w3.org/1999/xlink">
    <!-- Generator: Sketch 51.3 (57544) - http://www.bohemiancoding.com/sketch -->
    <title>bg-header</title>
    <desc>Created with Sketch.</desc>
    <defs></defs>
    <g id="bg-header" stroke="none" stroke-width="1" fill="none" fill-rule="evenodd">
        <path d="M0,-20 L-22.1686779,263 L10.4651178,221.578375 L5.55362342,208.029225 L10.4651178,201.094804 L14.2639459,210.883053 L24.3525023,178.473274 L43.5227457,178.473274 C83.6604428,190.590029 110.290535,190.590029 123.413023,178.473274 C136.535511,166.35652 169.405918,166.35652 222.024242,178.473274 L284.744727,172.948652 L281.066563,163.872754 L288.079457,160.058671 L290.424145,150.995571 L295.792084,172.948652 L360.181219,166.303963 C373.305821,156.425869 383.693705,149.961606 391.344869,146.911174 C391.886963,146.695047 390.797917,145.646806 391.344869,145.439106 C408.139317,140.877649 435.835398,138.156473 452.298471,138.30141 C468.761543,138.446347 465.659874,143.096927 474.994922,146.175543 C476.341273,146.619558 477.059873,144.192967 478.479841,144.655865 C479.70679,145.055841 481.62578,148.342912 482.907693,148.756986 C489.588509,150.914974 500.167816,154.220529 514.645613,158.673652 C515.485635,158.932029 519.256574,160.089001 520.479744,160.463518 C523.149708,161.281021 529.5169,163.227836 539.581321,166.303963 L567.167073,178.473274 L569.644685,166.303963 L584.440261,166.303963 L693.164353,150.995571 L817.086284,166.303963 L946.998916,150.995571 L939.604864,138.596921 L946.998916,138.30141 L946.998916,110.825377 L999.74042,105.0848 L1004.62903,97.3678498 L1007.52831,99.0381449 L1006.85685,104.310223 L1064.73046,98.011049 L1121.64685,92.5685561 L1137.26125,78.4885495 L1135.34746,92.5685561 L1318.03727,78.4885495 L1329.98894,78.4885495 L1329.98894,64.4541119 L1340.79747,78.4885495 L1416.54864,78.4885495 L1416.54864,98.011049 L1440.60416,69.2791472 L1444,-20 L0,-20 Z" id="mountain-copy" fill="#FFC04E"></path>
        <path d="M83.4437354,163.776852 C62.0985601,164.847162 34.2839816,162.359595 3.55271368e-15,156.314151 L-26.4924549,263 L10.4679933,221.538302 L5.55514942,207.976043 L10.4679933,201.034913 L14.2678653,210.832632 L24.3591938,178.391498 L43.5347047,178.391498 C83.6834307,190.519975 110.320841,190.519975 123.446934,178.391498 C136.573028,166.263021 169.452466,166.263021 222.085249,178.391498 L284.822968,172.861531 L281.143794,163.776852 L288.158614,159.959079 L290.503947,150.887211 L295.873361,172.861531 L360.280189,166.210413 C373.408397,156.322763 383.799135,149.852246 391.452402,146.798862 C391.994644,146.582527 390.905299,145.533271 391.452402,145.325371 C408.251464,140.759501 435.955155,138.035692 452.422752,138.180769 C468.890348,138.325847 465.787827,142.980925 475.12544,146.06252 C476.47216,146.506964 477.190958,144.078026 478.611316,144.541372 C479.838602,144.941734 481.758119,148.231986 483.040384,148.64646 C489.723037,150.806536 500.305251,154.115289 514.787026,158.572721 C515.627279,158.831347 519.399254,159.989439 520.622759,160.364318 C523.293457,161.182612 529.662399,163.13131 539.729585,166.210413 L567.322917,178.391498 L569.80121,166.210413 L584.600851,166.210413 L693.354819,150.887211 L817.3108,166.210413 L947.259129,150.887211 L939.863045,138.476566 L947.259129,138.180769 L947.259129,110.678154 L1000.34792,104.895776 L1004.72235,97.8514286 L1007.57555,99.1047074 L1004.72235,101.176189 L1005.66838,104.316276 L1065.02302,97.8514286 L1121.95505,92.4036704 L1137.57374,78.3100418 L1135.65943,92.4036704 L1318.39943,78.3100418 L1330.35439,78.3100418 L1330.35439,64.2620265 L1341.16589,78.3100418 L1416.93787,78.3100418 L1416.93787,97.8514286 L1441,69.0917298 L1441,41 L1422.86065,71.4440381 L1417.29548,55.4667903 L1360.2114,58.6164175 L1343.75674,58.6164175 L1318.39943,41 L1318.39943,55.1515676 L1285.67259,55.1515676 L1274.35896,41.1952466 L1161.34023,43.373577 C1103.10907,63.7890116 1067.89073,75.4344999 1055.68522,78.3100418 C1025.7537,85.3617185 984.235949,90.0595947 931.131957,92.4036704 L914.917948,134.900238 L817.3108,144.541372 L763.713756,118.789846 L735.973826,121.428009 L693.354819,110.678154 L567.322917,138.180769 C530.622196,135.993749 504.893891,130.409495 490.138002,121.428009 C468.004168,107.95578 455.131711,109.819778 435.339764,110.2751 C387.355518,111.378999 335.956861,119.587378 281.143794,134.900238 L278.831815,144.541372 L222.085249,153.506179 C190.91134,146.935576 164.632273,145.659616 143.248046,149.678299 C111.171705,155.706323 115.461498,162.171388 83.4437354,163.776852 Z" id="mountain-copy" fill="#EE9900"></path>
        <g id="Group" transform="translate(1354.000000, 38.000000)">
            <g id="Group-73-Copy-4" transform="translate(42.000000, 29.000000) scale(1, -1) rotate(-254.000000) translate(-42.000000, -29.000000) translate(23.000000, -9.000000)" stroke="#171717" stroke-width="2">
                <path d="M6.41138323,1.72665013 L5.08263438,67.6940147 C5.12881888,67.7239571 5.17769026,67.7554422 5.22910581,67.7883364 C5.69105329,68.083877 6.18304368,68.3794691 6.68211795,68.6542186 C7.12514555,68.8981134 7.55242942,69.1135564 7.95432386,69.2926639 C8.75122248,69.6478082 9.40618424,69.8386752 9.81996939,69.8386752 C10.2337545,69.8386752 10.8887163,69.6478082 11.6856149,69.2926639 C12.0875094,69.1135564 12.5147932,68.8981134 12.9578208,68.6542186 C13.4568951,68.3794691 13.9488855,68.083877 14.410833,67.7883364 C14.4703171,67.7502802 14.5263958,67.71411 14.5788483,67.6800327 L15.9073155,1.72665013 L6.41138323,1.72665013 Z" id="Rectangle-114-Copy" fill="#F7D0B3"></path>
                <g id="Group-76" transform="translate(0.094048, 61.675672)" fill="#171717">
                    <path d="M3.73688109,2.11799013 C2.07464981,2.84175753 1,4.48667906 1,6.49805236 L1,8.97124953 C1,11.1609926 2.75900265,12.8309537 4.94577894,12.7153308 L35.4950342,11.10008 L35.5480189,10.7530864 C36.00633,7.75163628 33.9557014,5.05517699 30.9505275,4.69690927 L16.1436861,2.93168256 C14.6818093,4.6437035 12.5469178,5.6594097 10.2448955,5.6594097 C7.57921799,5.6594097 5.15543602,4.29575924 3.73688109,2.11799013 Z" id="Combined-Shape"></path>
                </g>
            </g>
            <polygon id="Path-15" fill="#171717" transform="translate(63.072266, 30.301432) rotate(-360.000000) translate(-63.072266, -30.301432) " points="34 33.824256 34 47.0124961 36.0647785 50 38.1964116 47.0124961 92.1445312 32 88.6796875 10.6028646"></polygon>
        </g>
        <g id="Group-5-Copy" transform="translate(-22.000000, 60.000000)">
            <g id="Group-11" transform="translate(67.000000, 102.000000)" fill="#1B1B1B">
                <path d="M9.12069039,12 L1.74024837,12 C0.226850987,12 -1,10.8626155 -1,9.45958071 C-1,8.96141765 -0.844393668,8.48315155 -0.556912257,8.07411983 C-0.31519388,7.73020026 0.351569108,7.37552375 1.62443235,6.84210526 C1.53955236,7.07009646 1.53955236,7.28530823 1.62443235,7.48774056 C1.70931233,7.69017288 1.88489139,7.83505635 2.15116955,7.92239095 C1.60353325,8.15188876 1.17917996,8.34698154 0.881586755,8.50528265 C0.743480265,8.57874673 0.636337851,8.64239627 0.562310265,8.69388285 C0.53549342,8.7125341 0.515195675,8.72809156 0.501898889,8.73956751 C0.356814424,8.95335239 0.278782575,9.20038897 0.278782575,9.45958071 C0.278782575,10.207866 0.933103101,10.814471 1.74024837,10.814471 L9.12069039,10.814471 L9.12069039,10.775 C10.3987753,10.775 11.8037458,9.65693395 11.8037458,8.40464561 C11.8037458,7.15235728 10.3987753,6.225 9.12069039,6.225 C9.22273499,6.05643366 9.27375729,5.8489466 9.27375729,5.60253881 C9.27375729,5.35613103 9.22273499,5.15528476 9.12069039,5 C11.0515884,5 13,6.46748952 13,8.40464561 C13,10.3418017 11.0515884,12 9.12069039,12 Z M2.35193628,6.37721829 L6.94436586,5.14668049 C7.33744615,5.04135495 7.74148391,5.27462626 7.84680945,5.66770654 C7.952135,6.06078683 7.71886369,6.46482459 7.3257834,6.57015013 L2.73335382,7.80068793 C2.34027354,7.90601347 1.93623578,7.67274217 1.83091023,7.27966188 C1.72558469,6.88658159 1.958856,6.48254384 2.35193628,6.37721829 Z M2.74562176,7.20424949 C2.84944955,7.17642892 2.9122728,7.07421226 2.88594142,6.97594219 C2.85961003,6.87767211 2.75409517,6.82056151 2.65026737,6.84838208 C2.54643958,6.87620266 2.48361633,6.97841932 2.50994772,7.07668939 C2.5362791,7.17495947 2.64179397,7.23207007 2.74562176,7.20424949 Z M7.41670963,5.73056528 C7.52053743,5.70274471 7.58336068,5.60052805 7.55702929,5.50225797 C7.5306979,5.4039879 7.42518304,5.3468773 7.32135525,5.37469787 C7.21752745,5.40251845 7.1547042,5.50473511 7.18103559,5.60300518 C7.20736698,5.70127525 7.31288184,5.75838586 7.41670963,5.73056528 Z M8.03594403,5 C8.30655899,5 8.73143307,5.24656894 8.73143307,5.8606702 C8.73143307,6.47477147 8.40388718,6.4736842 8.24543366,6.4736842 C8.08698013,6.4736842 8.38547112,6.30818498 8.31096894,5.77737696 C8.23646677,5.24656894 7.76532907,5 8.03594403,5 Z" id="Combined-Shape" fill-rule="nonzero" transform="translate(6.000000, 8.500000) rotate(-75.000000) translate(-6.000000, -8.500000) "></path>
                <path d="M8.4,48 L0.815873423,48 C-0.739290526,48 -2,46.8626155 -2,45.4595807 C-2,44.9614176 -1.84009926,44.4831516 -1.54468397,44.0741198 C-1.29629468,43.7302003 -0.611130449,43.3755237 0.696861117,42.8421053 C0.609638627,43.0700965 0.609638627,43.2853082 0.696861117,43.4877406 C0.784083607,43.6901729 0.964508283,43.8350563 1.23813515,43.9223909 C0.675385246,44.1518888 0.239320707,44.3469815 -0.0664854386,44.5052826 C-0.208403375,44.5787467 -0.318502692,44.6423963 -0.394573283,44.6938828 C-0.422130216,44.7125341 -0.442988135,44.7280916 -0.456651885,44.7395675 C-0.605740373,44.9533524 -0.685925736,45.200389 -0.685925736,45.4595807 C-0.685925736,46.207866 -0.0135473499,46.814471 0.815873423,46.814471 L8.4,46.814471 L8.4,46.775 C9.71335734,46.775 10.7707317,45.7522883 10.7707317,44.5 C10.7707317,43.2477117 9.71335734,42.225 8.4,42.225 C8.50486081,42.0564337 8.55729122,41.8489466 8.55729122,41.6025388 C8.55729122,41.356131 8.50486081,41.1552848 8.4,41 C10.3841867,41 12,42.5628439 12,44.5 C12,46.4371561 10.3841867,48 8.4,48 Z M1.44341465,42.6881824 C2.42820198,42.7886021 3.32769002,42.7297312 4.14187877,42.51157 C4.93540803,42.2989445 5.67713483,41.9271795 6.36705918,41.3962751 C6.57142319,41.239003 6.86458582,41.2771891 7.02185056,41.4815588 C7.05937647,41.5303247 7.08689336,41.586027 7.10281927,41.6454633 C7.22835814,42.1139807 7.0588005,42.6119487 6.67343606,42.906504 C6.0658518,43.3709095 5.36959406,43.7082749 4.58466053,43.9185972 C3.74265858,44.1442109 2.84398845,44.2114797 1.88865012,44.1204036 L1.88865173,44.1203867 C1.42682385,44.0763588 1.04096578,43.7500192 0.92089398,43.3019052 C0.850918329,43.0407525 1.00589794,42.7723199 1.26705062,42.7023443 C1.32449071,42.6869532 1.3842544,42.6821565 1.44341397,42.6881891 Z M1.84767719,43.5726705 C1.95437041,43.5440822 2.01951655,43.4412431 1.99318517,43.342973 C1.96685378,43.244703 1.85901603,43.1882148 1.75232281,43.2168031 C1.64562959,43.2453915 1.58048345,43.3482306 1.60681483,43.4465007 C1.63314622,43.5447707 1.74098397,43.6012589 1.84767719,43.5726705 Z M6.64767719,42.0989863 C6.75437041,42.070398 6.81951655,41.9675589 6.79318517,41.8692888 C6.76685378,41.7710188 6.65901603,41.7145306 6.55232281,41.7431189 C6.44562959,41.7717073 6.38048345,41.8745464 6.40681483,41.9728164 C6.43314622,42.0710865 6.54098397,42.1275747 6.64767719,42.0989863 Z M7.28531694,41 C7.56340029,41 8,41.2465689 8,41.8606702 C8,42.4747715 7.66341454,42.4736842 7.50058803,42.4736842 C7.33776153,42.4736842 7.64449023,42.308185 7.56793195,41.777377 C7.49137368,41.2465689 7.00723358,41 7.28531694,41 Z" id="Combined-Shape-Copy" fill-rule="nonzero" transform="translate(5.000000, 44.500000) scale(-1, 1) rotate(-270.000000) translate(-5.000000, -44.500000) "></path>
                <rect id="Rectangle-5" x="5" y="14" width="2" height="24"></rect>
                <polygon id="Rectangle-5-Copy" points="5 36 8 36 7.58612351 39 5.42857143 38.7325896"></polygon>
            </g>
            <g id="Group-11" transform="translate(377.000000, 79.000000)" fill="#1B1B1B">
                <path d="M9.12069039,12 L1.74024837,12 C0.226850987,12 -1,10.8626155 -1,9.45958071 C-1,8.96141765 -0.844393668,8.48315155 -0.556912257,8.07411983 C-0.31519388,7.73020026 0.351569108,7.37552375 1.62443235,6.84210526 C1.53955236,7.07009646 1.53955236,7.28530823 1.62443235,7.48774056 C1.70931233,7.69017288 1.88489139,7.83505635 2.15116955,7.92239095 C1.60353325,8.15188876 1.17917996,8.34698154 0.881586755,8.50528265 C0.743480265,8.57874673 0.636337851,8.64239627 0.562310265,8.69388285 C0.53549342,8.7125341 0.515195675,8.72809156 0.501898889,8.73956751 C0.356814424,8.95335239 0.278782575,9.20038897 0.278782575,9.45958071 C0.278782575,10.207866 0.933103101,10.814471 1.74024837,10.814471 L9.12069039,10.814471 L9.12069039,10.775 C10.3987753,10.775 11.8037458,9.65693395 11.8037458,8.40464561 C11.8037458,7.15235728 10.3987753,6.225 9.12069039,6.225 C9.22273499,6.05643366 9.27375729,5.8489466 9.27375729,5.60253881 C9.27375729,5.35613103 9.22273499,5.15528476 9.12069039,5 C11.0515884,5 13,6.46748952 13,8.40464561 C13,10.3418017 11.0515884,12 9.12069039,12 Z M2.35193628,6.37721829 L6.94436586,5.14668049 C7.33744615,5.04135495 7.74148391,5.27462626 7.84680945,5.66770654 C7.952135,6.06078683 7.71886369,6.46482459 7.3257834,6.57015013 L2.73335382,7.80068793 C2.34027354,7.90601347 1.93623578,7.67274217 1.83091023,7.27966188 C1.72558469,6.88658159 1.958856,6.48254384 2.35193628,6.37721829 Z M2.74562176,7.20424949 C2.84944955,7.17642892 2.9122728,7.07421226 2.88594142,6.97594219 C2.85961003,6.87767211 2.75409517,6.82056151 2.65026737,6.84838208 C2.54643958,6.87620266 2.48361633,6.97841932 2.50994772,7.07668939 C2.5362791,7.17495947 2.64179397,7.23207007 2.74562176,7.20424949 Z M7.41670963,5.73056528 C7.52053743,5.70274471 7.58336068,5.60052805 7.55702929,5.50225797 C7.5306979,5.4039879 7.42518304,5.3468773 7.32135525,5.37469787 C7.21752745,5.40251845 7.1547042,5.50473511 7.18103559,5.60300518 C7.20736698,5.70127525 7.31288184,5.75838586 7.41670963,5.73056528 Z M8.03594403,5 C8.30655899,5 8.73143307,5.24656894 8.73143307,5.8606702 C8.73143307,6.47477147 8.40388718,6.4736842 8.24543366,6.4736842 C8.08698013,6.4736842 8.38547112,6.30818498 8.31096894,5.77737696 C8.23646677,5.24656894 7.76532907,5 8.03594403,5 Z" id="Combined-Shape" fill-rule="nonzero" transform="translate(6.000000, 8.500000) rotate(-75.000000) translate(-6.000000, -8.500000) "></path>
                <path d="M8.4,48 L0.815873423,48 C-0.739290526,48 -2,46.8626155 -2,45.4595807 C-2,44.9614176 -1.84009926,44.4831516 -1.54468397,44.0741198 C-1.29629468,43.7302003 -0.611130449,43.3755237 0.696861117,42.8421053 C0.609638627,43.0700965 0.609638627,43.2853082 0.696861117,43.4877406 C0.784083607,43.6901729 0.964508283,43.8350563 1.23813515,43.9223909 C0.675385246,44.1518888 0.239320707,44.3469815 -0.0664854386,44.5052826 C-0.208403375,44.5787467 -0.318502692,44.6423963 -0.394573283,44.6938828 C-0.422130216,44.7125341 -0.442988135,44.7280916 -0.456651885,44.7395675 C-0.605740373,44.9533524 -0.685925736,45.200389 -0.685925736,45.4595807 C-0.685925736,46.207866 -0.0135473499,46.814471 0.815873423,46.814471 L8.4,46.814471 L8.4,46.775 C9.71335734,46.775 10.7707317,45.7522883 10.7707317,44.5 C10.7707317,43.2477117 9.71335734,42.225 8.4,42.225 C8.50486081,42.0564337 8.55729122,41.8489466 8.55729122,41.6025388 C8.55729122,41.356131 8.50486081,41.1552848 8.4,41 C10.3841867,41 12,42.5628439 12,44.5 C12,46.4371561 10.3841867,48 8.4,48 Z M1.44341465,42.6881824 C2.42820198,42.7886021 3.32769002,42.7297312 4.14187877,42.51157 C4.93540803,42.2989445 5.67713483,41.9271795 6.36705918,41.3962751 C6.57142319,41.239003 6.86458582,41.2771891 7.02185056,41.4815588 C7.05937647,41.5303247 7.08689336,41.586027 7.10281927,41.6454633 C7.22835814,42.1139807 7.0588005,42.6119487 6.67343606,42.906504 C6.0658518,43.3709095 5.36959406,43.7082749 4.58466053,43.9185972 C3.74265858,44.1442109 2.84398845,44.2114797 1.88865012,44.1204036 L1.88865173,44.1203867 C1.42682385,44.0763588 1.04096578,43.7500192 0.92089398,43.3019052 C0.850918329,43.0407525 1.00589794,42.7723199 1.26705062,42.7023443 C1.32449071,42.6869532 1.3842544,42.6821565 1.44341397,42.6881891 Z M1.84767719,43.5726705 C1.95437041,43.5440822 2.01951655,43.4412431 1.99318517,43.342973 C1.96685378,43.244703 1.85901603,43.1882148 1.75232281,43.2168031 C1.64562959,43.2453915 1.58048345,43.3482306 1.60681483,43.4465007 C1.63314622,43.5447707 1.74098397,43.6012589 1.84767719,43.5726705 Z M6.64767719,42.0989863 C6.75437041,42.070398 6.81951655,41.9675589 6.79318517,41.8692888 C6.76685378,41.7710188 6.65901603,41.7145306 6.55232281,41.7431189 C6.44562959,41.7717073 6.38048345,41.8745464 6.40681483,41.9728164 C6.43314622,42.0710865 6.54098397,42.1275747 6.64767719,42.0989863 Z M7.28531694,41 C7.56340029,41 8,41.2465689 8,41.8606702 C8,42.4747715 7.66341454,42.4736842 7.50058803,42.4736842 C7.33776153,42.4736842 7.64449023,42.308185 7.56793195,41.777377 C7.49137368,41.2465689 7.00723358,41 7.28531694,41 Z" id="Combined-Shape-Copy" fill-rule="nonzero" transform="translate(5.000000, 44.500000) scale(-1, 1) rotate(-270.000000) translate(-5.000000, -44.500000) "></path>
                <rect id="Rectangle-5" x="5" y="14" width="2" height="24"></rect>
                <polygon id="Rectangle-5-Copy" points="5 36 8 36 7.58612351 39 5.42857143 38.7325896"></polygon>
            </g>
            <g id="Group-11" transform="translate(770.000000, 72.000000)" fill="#1B1B1B">
                <path d="M9.12069039,12 L1.74024837,12 C0.226850987,12 -1,10.8626155 -1,9.45958071 C-1,8.96141765 -0.844393668,8.48315155 -0.556912257,8.07411983 C-0.31519388,7.73020026 0.351569108,7.37552375 1.62443235,6.84210526 C1.53955236,7.07009646 1.53955236,7.28530823 1.62443235,7.48774056 C1.70931233,7.69017288 1.88489139,7.83505635 2.15116955,7.92239095 C1.60353325,8.15188876 1.17917996,8.34698154 0.881586755,8.50528265 C0.743480265,8.57874673 0.636337851,8.64239627 0.562310265,8.69388285 C0.53549342,8.7125341 0.515195675,8.72809156 0.501898889,8.73956751 C0.356814424,8.95335239 0.278782575,9.20038897 0.278782575,9.45958071 C0.278782575,10.207866 0.933103101,10.814471 1.74024837,10.814471 L9.12069039,10.814471 L9.12069039,10.775 C10.3987753,10.775 11.8037458,9.65693395 11.8037458,8.40464561 C11.8037458,7.15235728 10.3987753,6.225 9.12069039,6.225 C9.22273499,6.05643366 9.27375729,5.8489466 9.27375729,5.60253881 C9.27375729,5.35613103 9.22273499,5.15528476 9.12069039,5 C11.0515884,5 13,6.46748952 13,8.40464561 C13,10.3418017 11.0515884,12 9.12069039,12 Z M2.35193628,6.37721829 L6.94436586,5.14668049 C7.33744615,5.04135495 7.74148391,5.27462626 7.84680945,5.66770654 C7.952135,6.06078683 7.71886369,6.46482459 7.3257834,6.57015013 L2.73335382,7.80068793 C2.34027354,7.90601347 1.93623578,7.67274217 1.83091023,7.27966188 C1.72558469,6.88658159 1.958856,6.48254384 2.35193628,6.37721829 Z M2.74562176,7.20424949 C2.84944955,7.17642892 2.9122728,7.07421226 2.88594142,6.97594219 C2.85961003,6.87767211 2.75409517,6.82056151 2.65026737,6.84838208 C2.54643958,6.87620266 2.48361633,6.97841932 2.50994772,7.07668939 C2.5362791,7.17495947 2.64179397,7.23207007 2.74562176,7.20424949 Z M7.41670963,5.73056528 C7.52053743,5.70274471 7.58336068,5.60052805 7.55702929,5.50225797 C7.5306979,5.4039879 7.42518304,5.3468773 7.32135525,5.37469787 C7.21752745,5.40251845 7.1547042,5.50473511 7.18103559,5.60300518 C7.20736698,5.70127525 7.31288184,5.75838586 7.41670963,5.73056528 Z M8.03594403,5 C8.30655899,5 8.73143307,5.24656894 8.73143307,5.8606702 C8.73143307,6.47477147 8.40388718,6.4736842 8.24543366,6.4736842 C8.08698013,6.4736842 8.38547112,6.30818498 8.31096894,5.77737696 C8.23646677,5.24656894 7.76532907,5 8.03594403,5 Z" id="Combined-Shape" fill-rule="nonzero" transform="translate(6.000000, 8.500000) rotate(-75.000000) translate(-6.000000, -8.500000) "></path>
                <path d="M8.4,48 L0.815873423,48 C-0.739290526,48 -2,46.8626155 -2,45.4595807 C-2,44.9614176 -1.84009926,44.4831516 -1.54468397,44.0741198 C-1.29629468,43.7302003 -0.611130449,43.3755237 0.696861117,42.8421053 C0.609638627,43.0700965 0.609638627,43.2853082 0.696861117,43.4877406 C0.784083607,43.6901729 0.964508283,43.8350563 1.23813515,43.9223909 C0.675385246,44.1518888 0.239320707,44.3469815 -0.0664854386,44.5052826 C-0.208403375,44.5787467 -0.318502692,44.6423963 -0.394573283,44.6938828 C-0.422130216,44.7125341 -0.442988135,44.7280916 -0.456651885,44.7395675 C-0.605740373,44.9533524 -0.685925736,45.200389 -0.685925736,45.4595807 C-0.685925736,46.207866 -0.0135473499,46.814471 0.815873423,46.814471 L8.4,46.814471 L8.4,46.775 C9.71335734,46.775 10.7707317,45.7522883 10.7707317,44.5 C10.7707317,43.2477117 9.71335734,42.225 8.4,42.225 C8.50486081,42.0564337 8.55729122,41.8489466 8.55729122,41.6025388 C8.55729122,41.356131 8.50486081,41.1552848 8.4,41 C10.3841867,41 12,42.5628439 12,44.5 C12,46.4371561 10.3841867,48 8.4,48 Z M1.44341465,42.6881824 C2.42820198,42.7886021 3.32769002,42.7297312 4.14187877,42.51157 C4.93540803,42.2989445 5.67713483,41.9271795 6.36705918,41.3962751 C6.57142319,41.239003 6.86458582,41.2771891 7.02185056,41.4815588 C7.05937647,41.5303247 7.08689336,41.586027 7.10281927,41.6454633 C7.22835814,42.1139807 7.0588005,42.6119487 6.67343606,42.906504 C6.0658518,43.3709095 5.36959406,43.7082749 4.58466053,43.9185972 C3.74265858,44.1442109 2.84398845,44.2114797 1.88865012,44.1204036 L1.88865173,44.1203867 C1.42682385,44.0763588 1.04096578,43.7500192 0.92089398,43.3019052 C0.850918329,43.0407525 1.00589794,42.7723199 1.26705062,42.7023443 C1.32449071,42.6869532 1.3842544,42.6821565 1.44341397,42.6881891 Z M1.84767719,43.5726705 C1.95437041,43.5440822 2.01951655,43.4412431 1.99318517,43.342973 C1.96685378,43.244703 1.85901603,43.1882148 1.75232281,43.2168031 C1.64562959,43.2453915 1.58048345,43.3482306 1.60681483,43.4465007 C1.63314622,43.5447707 1.74098397,43.6012589 1.84767719,43.5726705 Z M6.64767719,42.0989863 C6.75437041,42.070398 6.81951655,41.9675589 6.79318517,41.8692888 C6.76685378,41.7710188 6.65901603,41.7145306 6.55232281,41.7431189 C6.44562959,41.7717073 6.38048345,41.8745464 6.40681483,41.9728164 C6.43314622,42.0710865 6.54098397,42.1275747 6.64767719,42.0989863 Z M7.28531694,41 C7.56340029,41 8,41.2465689 8,41.8606702 C8,42.4747715 7.66341454,42.4736842 7.50058803,42.4736842 C7.33776153,42.4736842 7.64449023,42.308185 7.56793195,41.777377 C7.49137368,41.2465689 7.00723358,41 7.28531694,41 Z" id="Combined-Shape-Copy" fill-rule="nonzero" transform="translate(5.000000, 44.500000) scale(-1, 1) rotate(-270.000000) translate(-5.000000, -44.500000) "></path>
                <rect id="Rectangle-5" x="5" y="14" width="2" height="24"></rect>
                <polygon id="Rectangle-5-Copy" points="5 36 8 36 7.58612351 39 5.42857143 38.7325896"></polygon>
            </g>
            <g id="Group-11-Copy-2" transform="translate(1191.000000, 8.000000)" fill="#1B1B1B">
                <path d="M9.12069039,12 L1.74024837,12 C0.226850987,12 -1,10.8626155 -1,9.45958071 C-1,8.96141765 -0.844393668,8.48315155 -0.556912257,8.07411983 C-0.31519388,7.73020026 0.351569108,7.37552375 1.62443235,6.84210526 C1.53955236,7.07009646 1.53955236,7.28530823 1.62443235,7.48774056 C1.70931233,7.69017288 1.88489139,7.83505635 2.15116955,7.92239095 C1.60353325,8.15188876 1.17917996,8.34698154 0.881586755,8.50528265 C0.743480265,8.57874673 0.636337851,8.64239627 0.562310265,8.69388285 C0.53549342,8.7125341 0.515195675,8.72809156 0.501898889,8.73956751 C0.356814424,8.95335239 0.278782575,9.20038897 0.278782575,9.45958071 C0.278782575,10.207866 0.933103101,10.814471 1.74024837,10.814471 L9.12069039,10.814471 L9.12069039,10.775 C10.3987753,10.775 11.8037458,9.65693395 11.8037458,8.40464561 C11.8037458,7.15235728 10.3987753,6.225 9.12069039,6.225 C9.22273499,6.05643366 9.27375729,5.8489466 9.27375729,5.60253881 C9.27375729,5.35613103 9.22273499,5.15528476 9.12069039,5 C11.0515884,5 13,6.46748952 13,8.40464561 C13,10.3418017 11.0515884,12 9.12069039,12 Z M2.35193628,6.37721829 L6.94436586,5.14668049 C7.33744615,5.04135495 7.74148391,5.27462626 7.84680945,5.66770654 C7.952135,6.06078683 7.71886369,6.46482459 7.3257834,6.57015013 L2.73335382,7.80068793 C2.34027354,7.90601347 1.93623578,7.67274217 1.83091023,7.27966188 C1.72558469,6.88658159 1.958856,6.48254384 2.35193628,6.37721829 Z M2.74562176,7.20424949 C2.84944955,7.17642892 2.9122728,7.07421226 2.88594142,6.97594219 C2.85961003,6.87767211 2.75409517,6.82056151 2.65026737,6.84838208 C2.54643958,6.87620266 2.48361633,6.97841932 2.50994772,7.07668939 C2.5362791,7.17495947 2.64179397,7.23207007 2.74562176,7.20424949 Z M7.41670963,5.73056528 C7.52053743,5.70274471 7.58336068,5.60052805 7.55702929,5.50225797 C7.5306979,5.4039879 7.42518304,5.3468773 7.32135525,5.37469787 C7.21752745,5.40251845 7.1547042,5.50473511 7.18103559,5.60300518 C7.20736698,5.70127525 7.31288184,5.75838586 7.41670963,5.73056528 Z M8.03594403,5 C8.30655899,5 8.73143307,5.24656894 8.73143307,5.8606702 C8.73143307,6.47477147 8.40388718,6.4736842 8.24543366,6.4736842 C8.08698013,6.4736842 8.38547112,6.30818498 8.31096894,5.77737696 C8.23646677,5.24656894 7.76532907,5 8.03594403,5 Z" id="Combined-Shape" fill-rule="nonzero" transform="translate(6.000000, 8.500000) rotate(-75.000000) translate(-6.000000, -8.500000) "></path>
                <path d="M8.4,48 L0.815873423,48 C-0.739290526,48 -2,46.8626155 -2,45.4595807 C-2,44.9614176 -1.84009926,44.4831516 -1.54468397,44.0741198 C-1.29629468,43.7302003 -0.611130449,43.3755237 0.696861117,42.8421053 C0.609638627,43.0700965 0.609638627,43.2853082 0.696861117,43.4877406 C0.784083607,43.6901729 0.964508283,43.8350563 1.23813515,43.9223909 C0.675385246,44.1518888 0.239320707,44.3469815 -0.0664854386,44.5052826 C-0.208403375,44.5787467 -0.318502692,44.6423963 -0.394573283,44.6938828 C-0.422130216,44.7125341 -0.442988135,44.7280916 -0.456651885,44.7395675 C-0.605740373,44.9533524 -0.685925736,45.200389 -0.685925736,45.4595807 C-0.685925736,46.207866 -0.0135473499,46.814471 0.815873423,46.814471 L8.4,46.814471 L8.4,46.775 C9.71335734,46.775 10.7707317,45.7522883 10.7707317,44.5 C10.7707317,43.2477117 9.71335734,42.225 8.4,42.225 C8.50486081,42.0564337 8.55729122,41.8489466 8.55729122,41.6025388 C8.55729122,41.356131 8.50486081,41.1552848 8.4,41 C10.3841867,41 12,42.5628439 12,44.5 C12,46.4371561 10.3841867,48 8.4,48 Z M1.44341465,42.6881824 C2.42820198,42.7886021 3.32769002,42.7297312 4.14187877,42.51157 C4.93540803,42.2989445 5.67713483,41.9271795 6.36705918,41.3962751 C6.57142319,41.239003 6.86458582,41.2771891 7.02185056,41.4815588 C7.05937647,41.5303247 7.08689336,41.586027 7.10281927,41.6454633 C7.22835814,42.1139807 7.0588005,42.6119487 6.67343606,42.906504 C6.0658518,43.3709095 5.36959406,43.7082749 4.58466053,43.9185972 C3.74265858,44.1442109 2.84398845,44.2114797 1.88865012,44.1204036 L1.88865173,44.1203867 C1.42682385,44.0763588 1.04096578,43.7500192 0.92089398,43.3019052 C0.850918329,43.0407525 1.00589794,42.7723199 1.26705062,42.7023443 C1.32449071,42.6869532 1.3842544,42.6821565 1.44341397,42.6881891 Z M1.84767719,43.5726705 C1.95437041,43.5440822 2.01951655,43.4412431 1.99318517,43.342973 C1.96685378,43.244703 1.85901603,43.1882148 1.75232281,43.2168031 C1.64562959,43.2453915 1.58048345,43.3482306 1.60681483,43.4465007 C1.63314622,43.5447707 1.74098397,43.6012589 1.84767719,43.5726705 Z M6.64767719,42.0989863 C6.75437041,42.070398 6.81951655,41.9675589 6.79318517,41.8692888 C6.76685378,41.7710188 6.65901603,41.7145306 6.55232281,41.7431189 C6.44562959,41.7717073 6.38048345,41.8745464 6.40681483,41.9728164 C6.43314622,42.0710865 6.54098397,42.1275747 6.64767719,42.0989863 Z M7.28531694,41 C7.56340029,41 8,41.2465689 8,41.8606702 C8,42.4747715 7.66341454,42.4736842 7.50058803,42.4736842 C7.33776153,42.4736842 7.64449023,42.308185 7.56793195,41.777377 C7.49137368,41.2465689 7.00723358,41 7.28531694,41 Z" id="Combined-Shape-Copy" fill-rule="nonzero" transform="translate(5.000000, 44.500000) scale(-1, 1) rotate(-270.000000) translate(-5.000000, -44.500000) "></path>
                <rect id="Rectangle-5" x="5" y="14" width="2" height="24"></rect>
                <polygon id="Rectangle-5-Copy" points="5 36 8 36 7.58612351 39 5.42857143 38.7325896"></polygon>
            </g>
            <g id="Group-12" transform="translate(955.000000, 86.000000)">
                <g id="Group-11-Copy" transform="translate(3.000000, 4.000000)" fill="#1B1B1B">
                    <path d="M1.88719176,7.50079154 C1.88719176,8.24907678 2.54151228,8.85568183 3.34865756,8.85568183 L9.88583186,8.88283185 L9.83772344,10.0961197 L3.34865756,10.0412108 C1.83526017,10.0412108 0.608409184,8.90382637 0.608409184,7.50079154 C0.608409184,7.00262848 0.764015516,6.52436238 1.05149693,6.11533066 C1.2932153,5.77141109 1.95997829,5.41673458 3.23284153,4.88331609 C3.14796155,5.11130729 3.14796155,5.32651906 3.23284153,5.52895139 C3.31772151,5.73138372 3.49330058,5.87626718 3.75957873,5.96360178 C3.21194243,6.19309959 2.78758914,6.38819237 2.48999594,6.54649348 C2.35188945,6.61995756 2.24474703,6.6836071 2.17071945,6.73509368 C2.1439026,6.75374493 2.12360486,6.76930239 2.11030807,6.78077834 C1.96522361,6.99456323 1.88719176,7.2415998 1.88719176,7.50079154 Z M3.96034547,4.41842912 L8.55277505,3.18789132 C8.94585533,3.08256578 9.34989309,3.31583709 9.45521864,3.70891737 C9.56054418,4.10199766 9.32727287,4.50603542 8.93419259,4.61136096 L4.34176301,5.84189876 C3.94868272,5.9472243 3.54464496,5.713953 3.43931942,5.32087271 C3.33399387,4.92779242 3.56726518,4.52375467 3.96034547,4.41842912 Z M4.35403094,5.24546032 C4.45785874,5.21763975 4.52068199,5.11542309 4.4943506,5.01715302 C4.46801921,4.91888294 4.36250435,4.86177234 4.25867656,4.88959292 C4.15484876,4.91741349 4.09202551,5.01963015 4.1183569,5.11790022 C4.14468829,5.2161703 4.25020315,5.2732809 4.35403094,5.24546032 Z M9.02511882,3.77177611 C9.12894661,3.74395554 9.19176986,3.64173888 9.16543847,3.54346881 C9.13910709,3.44519873 9.03359223,3.38808813 8.92976443,3.4159087 C8.82593664,3.44372928 8.76311339,3.54594594 8.78944477,3.64421601 C8.81577616,3.74248609 8.92129102,3.79959669 9.02511882,3.77177611 Z M9.64435321,3.04121083 C9.91496817,3.04121083 10.3398423,3.28777977 10.3398423,3.90188103 C10.3398423,4.5159823 10.0122964,4.51489503 9.85384284,4.51489503 C9.69538932,4.51489503 9.9938803,4.34939581 9.91937813,3.81858779 C9.84487596,3.28777977 9.37373825,3.04121083 9.64435321,3.04121083 Z" id="Combined-Shape" fill-rule="nonzero" transform="translate(5.474126, 6.568665) rotate(-75.000000) translate(-5.474126, -6.568665) "></path>
                    <path d="M8.4,44 L0.815873423,44 C-0.739290526,44 -2,42.8626155 -2,41.4595807 C-2,40.9614176 -1.84009926,40.4831516 -1.54468397,40.0741198 C-1.29629468,39.7302003 -0.611130449,39.3755237 0.696861117,38.8421053 C0.609638627,39.0700965 0.609638627,39.2853082 0.696861117,39.4877406 C0.784083607,39.6901729 0.964508283,39.8350563 1.23813515,39.9223909 C0.675385246,40.1518888 0.239320707,40.3469815 -0.0664854386,40.5052826 C-0.208403375,40.5787467 -0.318502692,40.6423963 -0.394573283,40.6938828 C-0.422130216,40.7125341 -0.442988135,40.7280916 -0.456651885,40.7395675 C-0.605740373,40.9533524 -0.685925736,41.200389 -0.685925736,41.4595807 C-0.685925736,42.207866 -0.0135473499,42.814471 0.815873423,42.814471 L8.4,42.814471 L8.4,42.775 C9.71335734,42.775 10.7707317,41.7522883 10.7707317,40.5 C10.7707317,39.2477117 9.71335734,38.225 8.4,38.225 C8.50486081,38.0564337 8.55729122,37.8489466 8.55729122,37.6025388 C8.55729122,37.356131 8.50486081,37.1552848 8.4,37 C10.3841867,37 12,38.5628439 12,40.5 C12,42.4371561 10.3841867,44 8.4,44 Z M1.44341465,38.6881824 C2.42820198,38.7886021 3.32769002,38.7297312 4.14187877,38.51157 C4.93540803,38.2989445 5.67713483,37.9271795 6.36705918,37.3962751 C6.57142319,37.239003 6.86458582,37.2771891 7.02185056,37.4815588 C7.05937647,37.5303247 7.08689336,37.586027 7.10281927,37.6454633 C7.22835814,38.1139807 7.0588005,38.6119487 6.67343606,38.906504 C6.0658518,39.3709095 5.36959406,39.7082749 4.58466053,39.9185972 C3.74265858,40.1442109 2.84398845,40.2114797 1.88865012,40.1204036 L1.88865173,40.1203867 C1.42682385,40.0763588 1.04096578,39.7500192 0.92089398,39.3019052 C0.850918329,39.0407525 1.00589794,38.7723199 1.26705062,38.7023443 C1.32449071,38.6869532 1.3842544,38.6821565 1.44341397,38.6881891 Z M1.84767719,39.5726705 C1.95437041,39.5440822 2.01951655,39.4412431 1.99318517,39.342973 C1.96685378,39.244703 1.85901603,39.1882148 1.75232281,39.2168031 C1.64562959,39.2453915 1.58048345,39.3482306 1.60681483,39.4465007 C1.63314622,39.5447707 1.74098397,39.6012589 1.84767719,39.5726705 Z M6.64767719,38.0989863 C6.75437041,38.070398 6.81951655,37.9675589 6.79318517,37.8692888 C6.76685378,37.7710188 6.65901603,37.7145306 6.55232281,37.7431189 C6.44562959,37.7717073 6.38048345,37.8745464 6.40681483,37.9728164 C6.43314622,38.0710865 6.54098397,38.1275747 6.64767719,38.0989863 Z M7.28531694,37 C7.56340029,37 8,37.2465689 8,37.8606702 C8,38.4747715 7.66341454,38.4736842 7.50058803,38.4736842 C7.33776153,38.4736842 7.64449023,38.308185 7.56793195,37.777377 C7.49137368,37.2465689 7.00723358,37 7.28531694,37 Z" id="Combined-Shape-Copy" fill-rule="nonzero" transform="translate(5.000000, 40.500000) scale(-1, 1) rotate(-270.000000) translate(-5.000000, -40.500000) "></path>
                    <rect id="Rectangle-5" x="5" y="10" width="2" height="24"></rect>
                    <polygon id="Rectangle-5-Copy" points="5 32 8 32 7.58612351 35 5.42857143 34.7325896"></polygon>
                </g>
                <path d="M2.12715011,1.31626614 L9.62715011,1.31626614 C10.7317196,1.31626614 11.6271501,2.21169665 11.6271501,3.31626614 L11.6271501,6.16913059 C11.6271501,6.96528048 10.9817431,7.61068749 10.1855932,7.61068749 C9.96641723,7.61068749 9.75012685,7.56071007 9.55316894,7.46455555 L7.61604888,6.51885683 C7.52494003,6.47437765 7.43058089,6.43689074 7.33378748,6.40672031 L2.03199311,4.75415472 C1.19633818,4.49368167 0.627150105,3.72006875 0.627150105,2.84476002 L0.627150105,2.81626614 C0.627150105,1.98783902 1.29872298,1.31626614 2.12715011,1.31626614 Z M9.12715011,5.31626614 C9.95557723,5.31626614 10.6271501,4.64469327 10.6271501,3.81626614 C10.6271501,2.98783902 9.95557723,2.31626614 9.12715011,2.31626614 C8.29872298,2.31626614 7.62715011,2.98783902 7.62715011,3.81626614 C7.62715011,4.64469327 8.29872298,5.31626614 9.12715011,5.31626614 Z" id="Combined-Shape-Copy-2" fill="#171717" transform="translate(6.127150, 4.463477) rotate(-15.000000) translate(-6.127150, -4.463477) "></path>
                <path d="M12.5622957,3.94010864 C12.4479669,5.79981343 10.5181053,7.51958242 8.64657579,7.51958242 L8.64657579,6.29458242 C9.77200016,6.29458242 11.1086719,5.4307347 11.3849705,4.36861997 L12.5622957,3.94010864 Z M11.5612095,3.4435859 C11.1862857,2.52978085 10.0358232,2.10480126 8.98859593,2.10480126 C9.09064053,1.93623492 9.14166283,1.72874786 9.14166283,1.48234007 C9.14166283,1.23593229 9.09064053,1.03508602 8.98859593,0.879801262 C10.5697643,0.879801262 12.2435022,1.91681302 12.7686567,3.33698143 C12.586425,3.40330835 12.3721503,3.45383451 12.1258327,3.4885599 C11.8795151,3.5232853 11.6913074,3.50829396 11.5612095,3.4435859 Z" id="Oval-7-Copy-2" fill="#1B1B1B" transform="translate(10.707616, 4.199692) rotate(-70.000000) translate(-10.707616, -4.199692) "></path>
            </g>
            <g id="Group-11" transform="translate(588.000000, 115.000000)" fill="#1B1B1B">
                <path d="M1.88719176,7.50079154 C1.88719176,8.24907678 2.54151228,8.85568183 3.34865756,8.85568183 L9.88583186,8.88283185 L9.83772344,10.0961197 L3.34865756,10.0412108 C1.83526017,10.0412108 0.608409184,8.90382637 0.608409184,7.50079154 C0.608409184,7.00262848 0.764015516,6.52436238 1.05149693,6.11533066 C1.2932153,5.77141109 1.95997829,5.41673458 3.23284153,4.88331609 C3.14796155,5.11130729 3.14796155,5.32651906 3.23284153,5.52895139 C3.31772151,5.73138372 3.49330058,5.87626718 3.75957873,5.96360178 C3.21194243,6.19309959 2.78758914,6.38819237 2.48999594,6.54649348 C2.35188945,6.61995756 2.24474703,6.6836071 2.17071945,6.73509368 C2.1439026,6.75374493 2.12360486,6.76930239 2.11030807,6.78077834 C1.96522361,6.99456323 1.88719176,7.2415998 1.88719176,7.50079154 Z M3.96034547,4.41842912 L8.55277505,3.18789132 C8.94585533,3.08256578 9.34989309,3.31583709 9.45521864,3.70891737 C9.56054418,4.10199766 9.32727287,4.50603542 8.93419259,4.61136096 L4.34176301,5.84189876 C3.94868272,5.9472243 3.54464496,5.713953 3.43931942,5.32087271 C3.33399387,4.92779242 3.56726518,4.52375467 3.96034547,4.41842912 Z M4.35403094,5.24546032 C4.45785874,5.21763975 4.52068199,5.11542309 4.4943506,5.01715302 C4.46801921,4.91888294 4.36250435,4.86177234 4.25867656,4.88959292 C4.15484876,4.91741349 4.09202551,5.01963015 4.1183569,5.11790022 C4.14468829,5.2161703 4.25020315,5.2732809 4.35403094,5.24546032 Z M9.02511882,3.77177611 C9.12894661,3.74395554 9.19176986,3.64173888 9.16543847,3.54346881 C9.13910709,3.44519873 9.03359223,3.38808813 8.92976443,3.4159087 C8.82593664,3.44372928 8.76311339,3.54594594 8.78944477,3.64421601 C8.81577616,3.74248609 8.92129102,3.79959669 9.02511882,3.77177611 Z M9.64435321,3.04121083 C9.91496817,3.04121083 10.3398423,3.28777977 10.3398423,3.90188103 C10.3398423,4.5159823 10.0122964,4.51489503 9.85384284,4.51489503 C9.69538932,4.51489503 9.9938803,4.34939581 9.91937813,3.81858779 C9.84487596,3.28777977 9.37373825,3.04121083 9.64435321,3.04121083 Z" id="Combined-Shape" fill-rule="nonzero" transform="translate(5.474126, 6.568665) rotate(-75.000000) translate(-5.474126, -6.568665) "></path>
                <path d="M8.4,44 L0.815873423,44 C-0.739290526,44 -2,42.8626155 -2,41.4595807 C-2,40.9614176 -1.84009926,40.4831516 -1.54468397,40.0741198 C-1.29629468,39.7302003 -0.611130449,39.3755237 0.696861117,38.8421053 C0.609638627,39.0700965 0.609638627,39.2853082 0.696861117,39.4877406 C0.784083607,39.6901729 0.964508283,39.8350563 1.23813515,39.9223909 C0.675385246,40.1518888 0.239320707,40.3469815 -0.0664854386,40.5052826 C-0.208403375,40.5787467 -0.318502692,40.6423963 -0.394573283,40.6938828 C-0.422130216,40.7125341 -0.442988135,40.7280916 -0.456651885,40.7395675 C-0.605740373,40.9533524 -0.685925736,41.200389 -0.685925736,41.4595807 C-0.685925736,42.207866 -0.0135473499,42.814471 0.815873423,42.814471 L8.4,42.814471 L8.4,42.775 C9.71335734,42.775 10.7707317,41.7522883 10.7707317,40.5 C10.7707317,39.2477117 9.71335734,38.225 8.4,38.225 C8.50486081,38.0564337 8.55729122,37.8489466 8.55729122,37.6025388 C8.55729122,37.356131 8.50486081,37.1552848 8.4,37 C10.3841867,37 12,38.5628439 12,40.5 C12,42.4371561 10.3841867,44 8.4,44 Z M1.44341465,38.6881824 C2.42820198,38.7886021 3.32769002,38.7297312 4.14187877,38.51157 C4.93540803,38.2989445 5.67713483,37.9271795 6.36705918,37.3962751 C6.57142319,37.239003 6.86458582,37.2771891 7.02185056,37.4815588 C7.05937647,37.5303247 7.08689336,37.586027 7.10281927,37.6454633 C7.22835814,38.1139807 7.0588005,38.6119487 6.67343606,38.906504 C6.0658518,39.3709095 5.36959406,39.7082749 4.58466053,39.9185972 C3.74265858,40.1442109 2.84398845,40.2114797 1.88865012,40.1204036 L1.88865173,40.1203867 C1.42682385,40.0763588 1.04096578,39.7500192 0.92089398,39.3019052 C0.850918329,39.0407525 1.00589794,38.7723199 1.26705062,38.7023443 C1.32449071,38.6869532 1.3842544,38.6821565 1.44341397,38.6881891 Z M1.84767719,39.5726705 C1.95437041,39.5440822 2.01951655,39.4412431 1.99318517,39.342973 C1.96685378,39.244703 1.85901603,39.1882148 1.75232281,39.2168031 C1.64562959,39.2453915 1.58048345,39.3482306 1.60681483,39.4465007 C1.63314622,39.5447707 1.74098397,39.6012589 1.84767719,39.5726705 Z M6.64767719,38.0989863 C6.75437041,38.070398 6.81951655,37.9675589 6.79318517,37.8692888 C6.76685378,37.7710188 6.65901603,37.7145306 6.55232281,37.7431189 C6.44562959,37.7717073 6.38048345,37.8745464 6.40681483,37.9728164 C6.43314622,38.0710865 6.54098397,38.1275747 6.64767719,38.0989863 Z M7.28531694,37 C7.56340029,37 8,37.2465689 8,37.8606702 C8,38.4747715 7.66341454,38.4736842 7.50058803,38.4736842 C7.33776153,38.4736842 7.64449023,38.308185 7.56793195,37.777377 C7.49137368,37.2465689 7.00723358,37 7.28531694,37 Z" id="Combined-Shape-Copy" fill-rule="nonzero" transform="translate(5.000000, 40.500000) scale(-1, 1) rotate(-270.000000) translate(-5.000000, -40.500000) "></path>
                <rect id="Rectangle-5" x="5" y="10" width="2" height="24"></rect>
                <polygon id="Rectangle-5-Copy" points="5 32 8 32 7.58612351 35 5.42857143 34.7325896"></polygon>
            </g>
            <path d="M586.5,111 L594,111 C595.104569,111 596,111.895431 596,113 L596,115.852864 C596,116.649014 595.354593,117.294421 594.558443,117.294421 C594.339267,117.294421 594.122977,117.244444 593.926019,117.148289 L591.988899,116.202591 C591.89779,116.158112 591.803431,116.120625 591.706637,116.090454 L586.404843,114.437889 C585.569188,114.177416 585,113.403803 585,112.528494 L585,112.5 C585,111.671573 585.671573,111 586.5,111 Z M593.5,115 C594.328427,115 595,114.328427 595,113.5 C595,112.671573 594.328427,112 593.5,112 C592.671573,112 592,112.671573 592,113.5 C592,114.328427 592.671573,115 593.5,115 Z" id="Combined-Shape" fill="#171717"></path>
            <path d="M375.5,80 L383,80 C384.104569,80 385,80.8954305 385,82 L385,84.8528644 C385,85.6490143 384.354593,86.2944213 383.558443,86.2944213 C383.339267,86.2944213 383.122977,86.2444439 382.926019,86.1482894 L380.988899,85.2025907 C380.89779,85.1581115 380.803431,85.1206246 380.706637,85.0904542 L375.404843,83.4378886 C374.569188,83.1774155 374,82.4038026 374,81.5284939 L374,81.5 C374,80.6715729 374.671573,80 375.5,80 Z M382.5,84 C383.328427,84 384,83.3284271 384,82.5 C384,81.6715729 383.328427,81 382.5,81 C381.671573,81 381,81.6715729 381,82.5 C381,83.3284271 381.671573,84 382.5,84 Z" id="Combined-Shape" fill="#171717"></path>
            <path d="M65.5,101 L73,101 C74.1045695,101 75,101.895431 75,103 L75,105.852864 C75,106.649014 74.354593,107.294421 73.5584431,107.294421 C73.3392671,107.294421 73.1229767,107.244444 72.9260188,107.148289 L70.9888988,106.202591 C70.8977899,106.158112 70.8034308,106.120625 70.7066374,106.090454 L65.404843,104.437889 C64.5691881,104.177416 64,103.403803 64,102.528494 L64,102.5 C64,101.671573 64.6715729,101 65.5,101 Z M72.5,105 C73.3284271,105 74,104.328427 74,103.5 C74,102.671573 73.3284271,102 72.5,102 C71.6715729,102 71,102.671573 71,103.5 C71,104.328427 71.6715729,105 72.5,105 Z" id="Combined-Shape" fill="#171717"></path>
            <path d="M768.5,73 L776,73 C777.104569,73 778,73.8954305 778,75 L778,77.8528644 C778,78.6490143 777.354593,79.2944213 776.558443,79.2944213 C776.339267,79.2944213 776.122977,79.2444439 775.926019,79.1482894 L773.988899,78.2025907 C773.89779,78.1581115 773.803431,78.1206246 773.706637,78.0904542 L768.404843,76.4378886 C767.569188,76.1774155 767,75.4038026 767,74.5284939 L767,74.5 C767,73.6715729 767.671573,73 768.5,73 Z M775.5,77 C776.328427,77 777,76.3284271 777,75.5 C777,74.6715729 776.328427,74 775.5,74 C774.671573,74 774,74.6715729 774,75.5 C774,76.3284271 774.671573,77 775.5,77 Z" id="Combined-Shape" fill="#171717"></path>
            <path d="M0.596623535,248.475884 C25.0750176,204.545132 40.0319002,178.891663 45.4672714,171.515476 C53.620328,160.451196 72.6225789,149.634692 73.4308132,149.634692 C78.4324065,149.634692 129.6768,156.799065 228.212692,149.634692 C256.467751,147.580315 307.677331,140.253838 381.841432,127.655259 C486.521144,149.127797 556.956716,159.864066 593.148147,159.864066 C647.435295,159.864066 749.486647,120.51532 775.367839,120.51532 C801.249031,120.51532 840.336728,133.148999 873.231965,137.159555 C895.162124,139.833259 925.215901,138.839814 963.393296,134.179221 C1012.638,126.882705 1050.74304,118.211601 1077.70842,108.165907 C1118.1565,93.0973668 1167.9007,61.9986203 1196.86691,56.2132669 C1212.68642,53.0536721 1278.4026,52.6143803 1391.0559,41.0735274 C1407.6306,39.3755203 1434.3576,34.3207554 1471.2369,25.9092326" id="Path-14" stroke="#171717" stroke-width="2"></path>
            <path d="M596.916412,114.957383 C596.802083,116.817088 594.872221,118.536857 593.000692,118.536857 L593.000692,117.311857 C594.126116,117.311857 595.462788,116.448009 595.739086,115.385895 L596.916412,114.957383 Z M595.573305,114.100642 C595.198382,113.186837 594.047919,112.761857 593.000692,112.761857 C593.102736,112.593291 593.153759,112.385804 593.153759,112.139396 C593.153759,111.892988 593.102736,111.692142 593.000692,111.536857 C594.58186,111.536857 596.255598,112.573869 596.780753,113.994037 C596.598521,114.060364 596.384246,114.11089 596.137929,114.145616 C595.891611,114.180341 595.703403,114.16535 595.573305,114.100642 Z" id="Oval-7" fill="#1B1B1B" transform="translate(594.958552, 115.036857) rotate(-70.000000) translate(-594.958552, -115.036857) "></path>
            <path d="M969.215562,77.7567297 C967.983062,77.8329181 966.389478,77.9088505 964.434808,77.9845269 C964.243495,77.9919337 963.400903,77.5792118 961.907031,76.7463611 C962.604148,77.6085151 962.833248,78.043758 962.594331,78.0520897 C961.626944,78.0858254 959.30824,78.1625908 955.638218,78.2823859 L956.760177,83.1320891 L952.321852,80.6216412 L956.760177,92.4309235" id="Path-2" stroke="#171717" stroke-linecap="round"></path>
            <polygon id="Rectangle-2" fill="#171717" points="54.284244 97.3910415 66.0494873 100.301062 71.3776115 104.286603 62.8309277 104.286603"></polygon>
            <polygon id="Rectangle-2" fill="#171717" transform="translate(375.447781, 80.546684) rotate(-270.000000) translate(-375.447781, -80.546684) " points="366.901097 77.0989028 378.666341 80.0089231 383.994465 83.9944647 375.447781 83.9944647"></polygon>
            <path d="M1189.5,7 L1197,7 C1198.10457,7 1199,7.8954305 1199,9 L1199,11.8528644 C1199,12.6490143 1198.35459,13.2944213 1197.55844,13.2944213 C1197.33927,13.2944213 1197.12298,13.2444439 1196.92602,13.1482894 L1194.9889,12.2025907 C1194.89779,12.1581115 1194.80343,12.1206246 1194.70664,12.0904542 L1189.40484,10.4378886 C1188.56919,10.1774155 1188,9.40380261 1188,8.52849387 L1188,8.5 C1188,7.67157288 1188.67157,7 1189.5,7 Z M1196.5,11 C1197.32843,11 1198,10.3284271 1198,9.5 C1198,8.67157288 1197.32843,8 1196.5,8 C1195.67157,8 1195,8.67157288 1195,9.5 C1195,10.3284271 1195.67157,11 1196.5,11 Z" id="Combined-Shape" fill="#171717"></path>
            <polygon id="Rectangle-2" fill="#171717" transform="translate(587.717989, 110.758304) rotate(-316.000000) translate(-587.717989, -110.758304) " points="584.261305 106.68056 587.980262 112.446565 591.174674 114.836048 586.050613 114.836048"></polygon>
            <polygon id="Rectangle-2" fill="#171717" transform="translate(766.913530, 73.705231) rotate(-47.000000) translate(-766.913530, -73.705231) " points="758.151079 70.2574502 769.916323 73.1674705 775.67598 76.5164986 766.697763 77.1530122"></polygon>
            <polygon id="Rectangle-2" fill="#171717" transform="translate(1187.125536, 7.259208) rotate(-30.000000) translate(-1187.125536, -7.259208) " points="1178.57885 3.81142681 1190.3441 6.7214471 1195.67222 10.7069888 1187.12554 10.7069888"></polygon>
        </g>
        <polygon id="Path-10" fill="#FFC04E" points="1360 55.9239619 1360 63.8106903 1367.25745 71 1379 51"></polygon>
    </g>
</svg>