<?xml version="1.0" encoding="UTF-8"?>
<svg width="649px" height="473px" viewBox="0 0 649 473" version="1.1" xmlns="http://www.w3.org/2000/svg" xmlns:xlink="http://www.w3.org/1999/xlink">
    <!-- Generator: Sketch 51.3 (57544) - http://www.bohemiancoding.com/sketch -->
    <title>flowers</title>
    <desc>Created with Sketch.</desc>
    <defs>
        <linearGradient x1="50%" y1="0%" x2="50%" y2="100%" id="linearGradient-1">
            <stop stop-color="#307778" offset="0%"></stop>
            <stop stop-color="#5CB7B8" offset="100%"></stop>
        </linearGradient>
        <linearGradient x1="50%" y1="0%" x2="50%" y2="66.0187531%" id="linearGradient-2">
            <stop stop-color="#E36A25" offset="0%"></stop>
            <stop stop-color="#FFC04E" offset="100%"></stop>
        </linearGradient>
        <linearGradient x1="42.1782767%" y1="0.61558297%" x2="57.8217233%" y2="99.384417%" id="linearGradient-3">
            <stop stop-color="#05AC9F" offset="0%"></stop>
            <stop stop-color="#7EE8D4" offset="100%"></stop>
        </linearGradient>
        <linearGradient x1="75%" y1="6.69872981%" x2="25%" y2="93.3012702%" id="linearGradient-4">
            <stop stop-color="#5BD3C7" offset="0%"></stop>
            <stop stop-color="#A4E9E3" offset="100%"></stop>
        </linearGradient>
    </defs>
    <g id="flowers" stroke="none" stroke-width="1" fill="none" fill-rule="evenodd">
        <g id="Group-3-Copy-3" transform="translate(327.000000, 264.000000) scale(-1, 1) translate(-327.000000, -264.000000) translate(15.000000, 18.000000)">
            <g id="Group-2-Copy" transform="translate(180.000000, 391.000000) rotate(-80.000000) translate(-180.000000, -391.000000) translate(159.000000, 329.000000)">
                <path d="M17.7491195,123.452545 C24.7340627,123.452545 36.9835695,81.1696001 40.9390326,49.9806152 C42.4740678,37.8768018 40.8043548,25.973888 40.0112981,21.054983 C37.1747008,3.46109309 27.4447778,0 17.7491195,0 C8.05346121,0 0.193577206,11.3381459 0.193577206,21.054983 C0.193577206,24.4964173 -1.40944878,19.6834062 4.61050519,54.7964548 C10.6304592,89.9095034 11.4873946,123.452545 17.7491195,123.452545 Z" id="Oval-3" fill="url(#linearGradient-2)"></path>
                <path d="M21.0090916,28.554018 C23.5641464,37.4462413 24.6562899,48.6426811 24.2855221,62.1433375 C23.9147543,75.6439938 21.9592235,95.8858163 18.4189296,122.868805" id="Line-2" stroke="#FFFFFF" stroke-width="2" stroke-linecap="square"></path>
            </g>
            <g id="Group-2" transform="translate(202.178606, 335.116978) rotate(-40.000000) translate(-202.178606, -335.116978) translate(160.678606, 213.116978)">
                <path d="M35.0604621,243.874078 C48.858067,243.874078 73.05495,160.346321 80.8683159,98.7341045 C83.900525,74.8236508 80.602282,51.3100641 79.0357291,41.5930233 C73.4324983,6.8372093 54.212638,0 35.0604621,0 C15.9082861,0 0.382379887,22.3979172 0.382379887,41.5930233 C0.382379887,48.3913977 -2.78413391,38.8835447 9.10729361,108.247545 C20.9987211,177.611545 22.6914559,243.874078 35.0604621,243.874078 Z" id="Oval-3" fill="url(#linearGradient-3)"></path>
                <path d="M41.5,56.4069767 C46.54709,73.9731011 48.7044396,96.0910853 47.9720488,122.760929 C47.2396581,149.430773 43.376829,189.41744 36.3835616,242.72093" id="Line-2" stroke="#FFFFFF" stroke-width="2" stroke-linecap="square"></path>
            </g>
            <g id="Group-2-Copy" transform="translate(389.821394, 350.883022) scale(-1, 1) rotate(-50.000000) translate(-389.821394, -350.883022) translate(365.821394, 279.383022)">
                <path d="M20.4668477,142.601788 C28.5213188,142.601788 42.6464584,93.760158 47.2075782,57.7333186 C48.9776565,43.7520317 47.0522786,30.0028069 46.1377898,24.3209099 C42.8668555,3.9979578 31.6470959,0 20.4668477,0 C9.2865995,0 0.223217564,13.0968534 0.223217564,24.3209099 C0.223217564,28.2961596 -1.62526223,22.7365821 5.31646135,63.2961633 C12.2581849,103.855745 13.2463335,142.601788 20.4668477,142.601788 Z" id="Oval-3" fill="url(#linearGradient-1)"></path>
                <path d="M24.2259836,32.9831518 C27.172266,43.2546852 28.4316375,56.1878519 28.0040981,71.7826518 C27.5765586,87.3774517 25.3215988,110.759068 21.2392185,141.927502" id="Line-2" stroke="#FFFFFF" stroke-width="2" stroke-linecap="square"></path>
            </g>
            <g id="Group" transform="translate(349.629410, 306.482963) rotate(-15.000000) translate(-349.629410, -306.482963) translate(268.129410, 187.982963)">
                <path d="M2.84722386,236.25351 C-4.83026807,231.825202 7.88168549,203.965874 22.4079581,166.300391 C45.500225,106.423959 44.91878,78.344628 72.3060383,39.3228631 C99.6932965,0.30109813 129.462167,-6.2974445 149.344489,5.17050007 C169.226811,16.6384447 163.445391,38.444056 149.892736,65.1176027 C136.34008,91.7911494 22.7295461,247.721455 2.84722386,236.25351 Z" id="Oval-2-Copy-2" fill="url(#linearGradient-4)"></path>
                <path d="M4.55944056,235.861244 C28.1803275,189.067605 46.4290355,154.581083 59.3055645,132.401676 C72.1820935,110.22227 86.9893296,87.7709934 103.727273,65.0478469" id="Line" stroke="#FFFFFF" stroke-width="2" stroke-linecap="square"></path>
            </g>
            <g id="Group-3" transform="translate(234.000000, 210.000000) rotate(-4.000000) translate(-234.000000, -210.000000) translate(170.000000, 4.000000)">
                <path d="M106.752395,411.930084 C93.5163684,414.016981 81.8844731,369.134437 63.0348602,310.983068 C33.0698235,218.540432 5.6196254,186.038465 0.577950814,114.062071 C-4.46372377,42.0856764 24.1994321,6.01322544 58.4766339,0.608808652 C92.7538356,-4.79560814 106.752395,26.3708824 116.266788,70.6568837 C125.781181,114.942885 141.029596,406.525667 106.752395,411.930084 Z" id="Oval-2" fill="url(#linearGradient-3)"></path>
                <path d="M105.142857,410.858726 C91.3730694,270.544096 82.276253,183.00655 77.8524081,148.246087 C73.4285632,113.485623 68.049189,87.2761707 61.7142857,69.6177285" id="Path-2" stroke="#FFFFFF" stroke-width="2" stroke-linecap="square"></path>
            </g>
            <path d="M20.0231195,450.562106 C30.952149,423.276537 31.0343828,399.912437 51.4289785,396.143131 C71.8235741,392.373825 82.9492928,432.568471 117.381332,432.568471 C151.813372,432.568471 151.451,400.83419 188.337429,396.143131 C225.223857,391.452072 237.10876,382.700037 294.496347,410.043737 C351.883934,437.387436 427.432806,457.033727 352.896858,474.551439 C278.36091,492.06915 59.0153213,477.361504 20.0231195,474.551439 C-18.9690824,471.741373 9.09408991,477.847674 20.0231195,450.562106 Z" id="Path-4" fill="#85FFE8"></path>
            <path d="M290.788435,480.593524 C281.448221,476.12065 240.878646,455.26393 246.539105,425.901707 C250.325266,406.261937 299.157585,375.012256 301.653929,371.209889 C307.882404,361.722836 344.802065,364.231729 362.601376,371.209889 C380.400688,378.18805 334.367076,417.014316 415.614652,425.901707 C496.862227,434.789097 562.42753,422.405689 602.221381,435.775005 C642.015232,449.14432 618.143183,459.169183 602.221381,480.593524 C586.299579,502.017865 306.37612,488.058209 290.788435,480.593524 Z" id="Path-5" fill="#07ADA0"></path>
        </g>
    </g>
</svg>