<?xml version="1.0" encoding="UTF-8"?>
<svg width="63px" height="216px" viewBox="0 0 63 216" version="1.1" xmlns="http://www.w3.org/2000/svg" xmlns:xlink="http://www.w3.org/1999/xlink">
    <!-- Generator: Sketch 51.3 (57544) - http://www.bohemiancoding.com/sketch -->
    <title>icons</title>
    <desc>Created with Sketch.</desc>
    <defs></defs>
    <g id="icons" stroke="none" stroke-width="1" fill="none" fill-rule="evenodd">
        <path d="M44,33 L12.6425536,33 C6.21254879,33 1,27.7076805 1,21.1792735 C1,18.8612903 1.66112805,16.6358888 2.88255665,14.7326392 C3.90955083,13.1323604 6.74244141,11.4820289 12.1504835,9 C11.789852,10.060857 11.789852,11.0622505 12.1504835,12.0041805 C12.5111149,12.9461106 13.2571016,13.6202622 14.3884434,14.0266354 C12.061689,15.0945028 10.2587298,16.0022815 8.99433905,16.7388662 C8.40756297,17.0806991 7.95234464,17.3768643 7.637822,17.6164345 C7.52388469,17.7032199 7.43764521,17.7756097 7.38115086,17.829008 C6.7647273,18.8237622 6.43319167,19.9732385 6.43319167,21.1792735 C6.43319167,24.6610905 9.21321769,27.483661 12.6425536,27.483661 L44,27.483661 L44,27.4 C49.8371437,27.4 54.5365854,22.7247467 54.5365854,17 C54.5365854,11.2752533 49.8371437,6.6 44,6.6 C44.466048,5.82941101 44.6990721,4.88089872 44.6990721,3.75446314 C44.6990721,2.62802756 44.466048,1.70987318 44,1 C52.8186077,1 60,8.14442928 60,17 C60,25.8555707 52.8186077,33 44,33 Z M15.5813217,6.81982249 L35.865764,1.38462255 C37.4661624,0.955797113 39.1111732,1.90554458 39.5399987,3.50594289 C39.9688241,5.1063412 39.0190766,6.75135207 37.4186783,7.18017751 L17.134236,12.6153775 C15.5338376,13.0442029 13.8888268,12.0944554 13.4600013,10.4940571 C13.0311759,8.8936588 13.9809234,7.24864793 15.5813217,6.81982249 Z M17.258819,10.9659258 C17.7922851,10.822984 18.1088676,10.2746471 17.9659258,9.74118095 C17.822984,9.20771485 17.2746471,8.89113236 16.741181,9.03407417 C16.2077149,9.17701599 15.8911324,9.72535294 16.0340742,10.258819 C16.177016,10.7922851 16.7253529,11.1088676 17.258819,10.9659258 Z M38.258819,4.96592583 C38.7922851,4.82298401 39.1088676,4.27464706 38.9659258,3.74118095 C38.822984,3.20771485 38.2746471,2.89113236 37.741181,3.03407417 C37.2077149,3.17701599 36.8911324,3.72535294 37.0340742,4.25881905 C37.177016,4.79228515 37.7253529,5.10886764 38.258819,4.96592583 Z M40.4265847,1 C41.8170015,1 44,2.00388783 44,4.50415726 C44,7.00442668 42.3170727,6.99999994 41.5029402,6.99999994 C40.6888076,6.99999994 42.2224511,6.3261817 41.8396598,4.16503476 C41.4568684,2.00388783 39.0361679,1 40.4265847,1 Z M24.5,23 C22.5670034,23 21,21.4329966 21,19.5 C21,17.5670034 22.5670034,16 24.5,16 C26.4329966,16 28,17.5670034 28,19.5 C28,21.4329966 26.4329966,23 24.5,23 Z M39.5,23 C37.5670034,23 36,21.4329966 36,19.5 C36,17.5670034 37.5670034,16 39.5,16 C41.4329966,16 43,17.5670034 43,19.5 C43,21.4329966 41.4329966,23 39.5,23 Z" id="Combined-Shape-Copy-3" fill="#1B1B1B" fill-rule="nonzero"></path>
        <g id="Group-Copy" transform="translate(1.000000, 104.000000)">
            <circle id="Oval-6" fill="#232323" cx="23" cy="23" r="23"></circle>
            <path d="M36.0587506,23.3708318 L13.1227336,34.8393194 C12.8757286,34.9628266 12.5753691,34.8627119 12.4518619,34.6157069 C12.4053525,34.5226916 12.3890012,34.4174894 12.4050843,34.3147455 C13.1786581,29.3729146 13.565445,25.8513784 13.565445,23.750137 C13.565445,23.625659 16.2384379,23.3240229 21.5844236,22.8452288 L21.5844236,22.066487 C16.2384379,21.570285 13.565445,21.2529611 13.565445,21.1145152 C13.565445,19.1704655 13.228481,15.9966178 12.554553,11.5929719 L12.5546015,11.5929645 C12.4710574,11.0470626 12.8458725,10.5367957 13.3917744,10.4532516 C13.5961937,10.4219676 13.8052843,10.4548318 13.9902498,10.5473181 L36.0587506,21.5819911 C36.5527253,21.8289879 36.7529405,22.429664 36.5059437,22.9236387 C36.4091817,23.1171553 36.2522672,23.2740698 36.0587506,23.3708318 Z" id="Triangle" fill="#FCFDFE"></path>
        </g>
        <g id="Group" transform="translate(1.000000, 45.000000)">
            <circle id="Oval" fill="#232323" cx="23" cy="23" r="23"></circle>
            <path d="M31.0731707,31.9968628 L11.3302521,31.9968628 C7.28186566,31.9968628 4,28.7332775 4,24.7074411 C4,23.2780233 4.41625192,21.9056974 5.18527389,20.732031 C5.83187829,19.745196 7.61549062,18.7274952 11.0204405,17.1969163 C10.7933839,17.8511091 10.7933839,18.4686329 11.0204405,19.0494876 C11.2474972,19.6303424 11.7171768,20.0460677 12.4294794,20.2966636 C10.9645348,20.9551794 9.82937614,21.5149743 9.03330479,21.9691999 C8.66386551,22.179996 8.37725613,22.3626306 8.17922996,22.510365 C8.10749404,22.5638825 8.05319693,22.6085227 8.0176276,22.6414516 C7.62952201,23.2548811 7.42078432,23.9637222 7.42078432,24.7074411 C7.42078432,26.8545539 9.17111267,28.5951327 11.3302521,28.5951327 L31.0731707,28.5951327 L31.0731707,28.5165629 C34.6946913,28.5165629 37.610351,25.6109765 37.610351,22.0531487 C37.610351,18.495321 34.6946913,15.5897346 31.0731707,15.5897346 C31.3623194,15.1108273 31.5068938,14.5213439 31.5068938,13.8212843 C31.5068938,13.1212248 31.3623194,12.5506082 31.0731707,12.1094347 C36.5444715,12.1094347 41,16.5495698 41,22.0531487 C41,27.5567277 36.5444715,31.9968628 31.0731707,31.9968628 Z M8.51850107,22.7468962 C8.51644673,22.7488942 8.51443053,22.7508674 8.51245255,22.7528156 C8.51209481,22.753168 8.51411098,22.7511949 8.51850107,22.7468962 Z M12.8197787,16.2250497 L25.8079601,12.744877 C26.7948689,12.4804356 27.8092886,13.0661111 28.0737299,14.0530198 C28.3381713,15.0399285 27.7524959,16.0543482 26.7655871,16.3187896 L13.7774057,19.7989623 C12.790497,20.0634037 11.7760773,19.4777282 11.5116359,18.4908195 C11.2471945,17.5039108 11.83287,16.4894911 12.8197787,16.2250497 Z M13.8807746,18.5607724 C14.24184,18.4640252 14.4541519,18.0855783 14.3549864,17.7154875 C14.2558209,17.3453967 13.8827299,17.123808 13.5216644,17.2205552 C13.160599,17.3173024 12.9482871,17.6957493 13.0474526,18.0658401 C13.1466182,18.4359309 13.5197091,18.6575196 13.8807746,18.5607724 Z M26.5149209,15.016702 C26.8759864,14.9199548 27.0882982,14.5415078 26.9891327,14.1714171 C26.8899672,13.8013263 26.5168763,13.5797376 26.1558108,13.6764848 C25.7947453,13.773232 25.5824335,14.1516789 25.681599,14.5217697 C25.7807645,14.8918605 26.1538554,15.1134492 26.5149209,15.016702 Z M28.5838156,12.0082533 C29.519735,12.1066224 30.9244487,12.8767357 30.7632839,14.4101166 C30.6021191,15.9434975 29.4695898,15.8217191 28.9215797,15.7641209 C28.3735696,15.7065227 29.4493317,15.4017813 29.3309719,14.0492978 C29.2126121,12.6968144 27.6478961,11.9098842 28.5838156,12.0082533 Z M18.8902439,25.5218862 C17.6442356,25.5218862 16.6341463,24.4865484 16.6341463,23.2093946 C16.6341463,21.9322407 17.6442356,20.8969029 18.8902439,20.8969029 C20.1362522,20.8969029 21.1463415,21.9322407 21.1463415,23.2093946 C21.1463415,24.4865484 20.1362522,25.5218862 18.8902439,25.5218862 Z M27.9146341,25.5218862 C26.6686259,25.5218862 25.6585366,24.4865484 25.6585366,23.2093946 C25.6585366,21.9322407 26.6686259,20.8969029 27.9146341,20.8969029 C29.1606424,20.8969029 30.1707317,21.9322407 30.1707317,23.2093946 C30.1707317,24.4865484 29.1606424,25.5218862 27.9146341,25.5218862 Z" id="Combined-Shape" fill="#FFFFFF" fill-rule="nonzero"></path>
        </g>
        <g id="Group-2" transform="translate(1.000000, 162.000000)">
            <g id="Group-Copy-2" fill="#232323">
                <circle id="Oval-6" cx="23" cy="23" r="23"></circle>
            </g>
            <g id="Group-11" transform="translate(22.500000, 23.000000) rotate(45.000000) translate(-22.500000, -23.000000) translate(18.000000, 2.000000)" fill="#FFFFFF">
                <path d="M7.33556363,9.4965978 L1.21667488,9.4965978 C-0.0380345635,9.4965978 -1.05517753,8.63935313 -1.05517753,7.58188825 C-1.05517753,7.20642363 -0.926169293,6.84595532 -0.687827637,6.53766883 C-0.487426651,6.27845726 0.0653652475,6.01113819 1.1206555,5.60910162 C1.05028422,5.78093819 1.05028422,5.94314292 1.1206555,6.09571581 C1.19102679,6.2482887 1.33659378,6.35748711 1.55735649,6.42331104 C1.10332873,6.59628313 0.751510971,6.74332422 0.50478595,6.86263549 C0.390286271,6.91800523 0.301457918,6.96597778 0.24008401,7.00478312 C0.21785102,7.01884054 0.201022809,7.03056617 0.189998868,7.03921558 C0.0697139718,7.20034487 0.00502025764,7.3865359 0.00502025764,7.58188825 C0.00502025764,8.14586952 0.547496508,8.60306668 1.21667488,8.60306668 L7.33556363,8.60306668 L7.33556363,8.57331746 C8.39518301,8.57331746 9.55999917,7.73063304 9.55999917,6.78678553 C9.55999917,5.84293802 8.39518301,5.14399047 7.33556363,5.14399047 C7.42016555,5.01694232 7.46246651,4.86055969 7.46246651,4.67484257 C7.46246651,4.48912546 7.42016555,4.33774798 7.33556363,4.22071013 C8.93640952,4.22071013 10.5517753,5.3267544 10.5517753,6.78678553 C10.5517753,8.24681667 8.93640952,9.4965978 7.33556363,9.4965978 Z M1.68453614,5.31946353 L5.59925949,4.27051657 C5.89552341,4.19113289 6.20004595,4.36694906 6.27942963,4.66321298 C6.35881331,4.9594769 6.18299714,5.26399945 5.88673322,5.34338312 L1.97200987,6.39233008 C1.67574595,6.47171376 1.3712234,6.29589759 1.29183973,5.99963367 C1.21245605,5.70336975 1.38827222,5.3988472 1.68453614,5.31946353 Z M2.04660442,5.88204909 C2.13268472,5.85898394 2.18637831,5.78024361 2.16653239,5.70617763 C2.14668647,5.63211165 2.06081629,5.5907673 1.97473599,5.61383245 C1.88865568,5.6368976 1.8349621,5.71563794 1.85480802,5.78970392 C1.87465394,5.8637699 1.96052411,5.90511424 2.04660442,5.88204909 Z M5.91925419,4.7713359 C6.00533449,4.74827075 6.05902807,4.66953041 6.03918216,4.59546443 C6.01933624,4.52139845 5.93346606,4.48005411 5.84738575,4.50311926 C5.76130545,4.52618441 5.70761187,4.60492475 5.72745779,4.67899073 C5.74730371,4.75305671 5.83317388,4.79440105 5.91925419,4.7713359 Z M6.43623507,4.22071013 C6.66059329,4.22071013 7.01284282,4.40654871 7.01284282,4.86939575 C7.01284282,5.33224279 6.74128499,5.33142331 6.60991623,5.33142331 C6.47854747,5.33142331 6.72601681,5.20668685 6.66424944,4.80661778 C6.60248207,4.40654871 6.21187685,4.22071013 6.43623507,4.22071013 Z" id="Combined-Shape" fill-rule="nonzero" transform="translate(4.748299, 6.858654) rotate(-75.000000) translate(-4.748299, -6.858654) "></path>
                <path d="M7.56713031,37.9863912 L1.27937319,37.9863912 C-0.00996357314,37.9863912 -1.05517753,37.1291465 -1.05517753,36.0716816 C-1.05517753,35.696217 -0.922608939,35.3357487 -0.677689558,35.0274622 C-0.471757929,34.7682506 0.0962898535,34.5009316 1.18070389,34.098895 C1.1083905,34.2707316 1.1083905,34.4329363 1.18070389,34.5855092 C1.25301727,34.7380821 1.4026016,34.8472805 1.6294569,34.9131044 C1.16289893,35.0860765 0.801371745,35.2331176 0.547837637,35.3524289 C0.430178008,35.4077986 0.338898181,35.4557712 0.275830484,35.4945765 C0.252983911,35.5086339 0.235691276,35.5203596 0.224363097,35.529009 C0.100758593,35.6901383 0.0342794698,35.8763293 0.0342794698,36.0716816 C0.0342794698,36.6356629 0.591726915,37.0928601 1.27937319,37.0928601 L7.56713031,37.0928601 L7.56713031,37.0631108 C8.65599293,37.0631108 9.53262825,36.2922949 9.53262825,35.3484474 C9.53262825,34.4045998 8.65599293,33.6337839 7.56713031,33.6337839 C7.65406706,33.5067357 7.69753543,33.3503531 7.69753543,33.164636 C7.69753543,32.9789189 7.65406706,32.8275414 7.56713031,32.7105035 C9.21215615,32.7105035 10.5517753,33.8884162 10.5517753,35.3484474 C10.5517753,36.8084785 9.21215615,37.9863912 7.56713031,37.9863912 Z M1.77415621,34.0290532 C2.60119916,34.0922309 3.35845155,34.0317174 4.04591338,33.8475125 C4.7169375,33.6677122 5.34667349,33.3633113 5.93512134,32.9343098 C6.09783717,32.8156764 6.32591477,32.8514189 6.44454347,33.0141381 C6.47097732,33.0503966 6.49049137,33.0912229 6.5021049,33.1345652 C6.59504521,33.4814232 6.46557281,33.8497659 6.17604608,34.0621867 C5.65432352,34.4449455 5.05706544,34.7264701 4.38426222,34.9067471 C3.66927077,35.0983285 2.90842328,35.1649936 2.10171975,35.1067422 L2.10171762,35.1067717 C1.75720465,35.0818947 1.46626676,34.8415087 1.37686808,34.5078682 C1.32237302,34.3044899 1.44306676,34.0954422 1.64644508,34.0409472 C1.6880386,34.0298022 1.73121967,34.0257844 1.77415536,34.0290643 L1.77415621,34.0290532 Z M2.13121532,34.6495208 C2.21967126,34.6258191 2.27529067,34.5465627 2.25544475,34.4724967 C2.23559883,34.3984308 2.14780283,34.3576024 2.05934689,34.3813041 C1.97089094,34.4050058 1.91527153,34.4842622 1.93511745,34.5583282 C1.95496337,34.6323942 2.04275938,34.6732225 2.13121532,34.6495208 Z M6.11074201,33.5388076 C6.19919796,33.5151059 6.25481737,33.4358495 6.23497145,33.3617835 C6.21512553,33.2877176 6.12732952,33.2468893 6.03887358,33.2705909 C5.95041764,33.2942926 5.89479823,33.373549 5.91464415,33.447615 C5.93449007,33.521681 6.02228607,33.5625093 6.11074201,33.5388076 Z M6.64298218,32.7105035 C6.87353221,32.7105035 7.23550308,32.8963421 7.23550308,33.3591891 C7.23550308,33.8220362 6.95645083,33.8212167 6.82145657,33.8212167 C6.68646232,33.8212167 6.94076129,33.6964802 6.87728927,33.2964112 C6.81381725,32.8963421 6.41243215,32.7105035 6.64298218,32.7105035 Z" id="Combined-Shape-Copy" fill-rule="nonzero" transform="translate(4.748299, 35.348447) scale(-1, 1) rotate(-270.000000) translate(-4.748299, -35.348447) "></path>
                <rect id="Rectangle-5" x="4.22071013" y="11.6069529" width="1.05517753" height="18.9931956"></rect>
                <polygon id="Rectangle-5-Copy" points="4.22071013 28.4897934 6.3310652 28.4897934 6.03992308 30.6001485 4.52218943 30.4120382"></polygon>
            </g>
            <g id="Group-11-Copy" transform="translate(22.500000, 23.000000) rotate(-45.000000) translate(-22.500000, -23.000000) translate(18.000000, 2.000000)" fill="#FFFFFF">
                <path d="M7.33556363,9.4965978 L1.21667488,9.4965978 C-0.0380345635,9.4965978 -1.05517753,8.63935313 -1.05517753,7.58188825 C-1.05517753,7.20642363 -0.926169293,6.84595532 -0.687827637,6.53766883 C-0.487426651,6.27845726 0.0653652475,6.01113819 1.1206555,5.60910162 C1.05028422,5.78093819 1.05028422,5.94314292 1.1206555,6.09571581 C1.19102679,6.2482887 1.33659378,6.35748711 1.55735649,6.42331104 C1.10332873,6.59628313 0.751510971,6.74332422 0.50478595,6.86263549 C0.390286271,6.91800523 0.301457918,6.96597778 0.24008401,7.00478312 C0.21785102,7.01884054 0.201022809,7.03056617 0.189998868,7.03921558 C0.0697139718,7.20034487 0.00502025764,7.3865359 0.00502025764,7.58188825 C0.00502025764,8.14586952 0.547496508,8.60306668 1.21667488,8.60306668 L7.33556363,8.60306668 L7.33556363,8.57331746 C8.39518301,8.57331746 9.55999917,7.73063304 9.55999917,6.78678553 C9.55999917,5.84293802 8.39518301,5.14399047 7.33556363,5.14399047 C7.42016555,5.01694232 7.46246651,4.86055969 7.46246651,4.67484257 C7.46246651,4.48912546 7.42016555,4.33774798 7.33556363,4.22071013 C8.93640952,4.22071013 10.5517753,5.3267544 10.5517753,6.78678553 C10.5517753,8.24681667 8.93640952,9.4965978 7.33556363,9.4965978 Z M1.68453614,5.31946353 L5.59925949,4.27051657 C5.89552341,4.19113289 6.20004595,4.36694906 6.27942963,4.66321298 C6.35881331,4.9594769 6.18299714,5.26399945 5.88673322,5.34338312 L1.97200987,6.39233008 C1.67574595,6.47171376 1.3712234,6.29589759 1.29183973,5.99963367 C1.21245605,5.70336975 1.38827222,5.3988472 1.68453614,5.31946353 Z M2.04660442,5.88204909 C2.13268472,5.85898394 2.18637831,5.78024361 2.16653239,5.70617763 C2.14668647,5.63211165 2.06081629,5.5907673 1.97473599,5.61383245 C1.88865568,5.6368976 1.8349621,5.71563794 1.85480802,5.78970392 C1.87465394,5.8637699 1.96052411,5.90511424 2.04660442,5.88204909 Z M5.91925419,4.7713359 C6.00533449,4.74827075 6.05902807,4.66953041 6.03918216,4.59546443 C6.01933624,4.52139845 5.93346606,4.48005411 5.84738575,4.50311926 C5.76130545,4.52618441 5.70761187,4.60492475 5.72745779,4.67899073 C5.74730371,4.75305671 5.83317388,4.79440105 5.91925419,4.7713359 Z M6.43623507,4.22071013 C6.66059329,4.22071013 7.01284282,4.40654871 7.01284282,4.86939575 C7.01284282,5.33224279 6.74128499,5.33142331 6.60991623,5.33142331 C6.47854747,5.33142331 6.72601681,5.20668685 6.66424944,4.80661778 C6.60248207,4.40654871 6.21187685,4.22071013 6.43623507,4.22071013 Z" id="Combined-Shape" fill-rule="nonzero" transform="translate(4.748299, 6.858654) rotate(-75.000000) translate(-4.748299, -6.858654) "></path>
                <path d="M7.56713031,37.9863912 L1.27937319,37.9863912 C-0.00996357314,37.9863912 -1.05517753,37.1291465 -1.05517753,36.0716816 C-1.05517753,35.696217 -0.922608939,35.3357487 -0.677689558,35.0274622 C-0.471757929,34.7682506 0.0962898535,34.5009316 1.18070389,34.098895 C1.1083905,34.2707316 1.1083905,34.4329363 1.18070389,34.5855092 C1.25301727,34.7380821 1.4026016,34.8472805 1.6294569,34.9131044 C1.16289893,35.0860765 0.801371745,35.2331176 0.547837637,35.3524289 C0.430178008,35.4077986 0.338898181,35.4557712 0.275830484,35.4945765 C0.252983911,35.5086339 0.235691276,35.5203596 0.224363097,35.529009 C0.100758593,35.6901383 0.0342794698,35.8763293 0.0342794698,36.0716816 C0.0342794698,36.6356629 0.591726915,37.0928601 1.27937319,37.0928601 L7.56713031,37.0928601 L7.56713031,37.0631108 C8.65599293,37.0631108 9.53262825,36.2922949 9.53262825,35.3484474 C9.53262825,34.4045998 8.65599293,33.6337839 7.56713031,33.6337839 C7.65406706,33.5067357 7.69753543,33.3503531 7.69753543,33.164636 C7.69753543,32.9789189 7.65406706,32.8275414 7.56713031,32.7105035 C9.21215615,32.7105035 10.5517753,33.8884162 10.5517753,35.3484474 C10.5517753,36.8084785 9.21215615,37.9863912 7.56713031,37.9863912 Z M1.77415621,34.0290532 C2.60119916,34.0922309 3.35845155,34.0317174 4.04591338,33.8475125 C4.7169375,33.6677122 5.34667349,33.3633113 5.93512134,32.9343098 C6.09783717,32.8156764 6.32591477,32.8514189 6.44454347,33.0141381 C6.47097732,33.0503966 6.49049137,33.0912229 6.5021049,33.1345652 C6.59504521,33.4814232 6.46557281,33.8497659 6.17604608,34.0621867 C5.65432352,34.4449455 5.05706544,34.7264701 4.38426222,34.9067471 C3.66927077,35.0983285 2.90842328,35.1649936 2.10171975,35.1067422 L2.10171762,35.1067717 C1.75720465,35.0818947 1.46626676,34.8415087 1.37686808,34.5078682 C1.32237302,34.3044899 1.44306676,34.0954422 1.64644508,34.0409472 C1.6880386,34.0298022 1.73121967,34.0257844 1.77415536,34.0290643 L1.77415621,34.0290532 Z M2.13121532,34.6495208 C2.21967126,34.6258191 2.27529067,34.5465627 2.25544475,34.4724967 C2.23559883,34.3984308 2.14780283,34.3576024 2.05934689,34.3813041 C1.97089094,34.4050058 1.91527153,34.4842622 1.93511745,34.5583282 C1.95496337,34.6323942 2.04275938,34.6732225 2.13121532,34.6495208 Z M6.11074201,33.5388076 C6.19919796,33.5151059 6.25481737,33.4358495 6.23497145,33.3617835 C6.21512553,33.2877176 6.12732952,33.2468893 6.03887358,33.2705909 C5.95041764,33.2942926 5.89479823,33.373549 5.91464415,33.447615 C5.93449007,33.521681 6.02228607,33.5625093 6.11074201,33.5388076 Z M6.64298218,32.7105035 C6.87353221,32.7105035 7.23550308,32.8963421 7.23550308,33.3591891 C7.23550308,33.8220362 6.95645083,33.8212167 6.82145657,33.8212167 C6.68646232,33.8212167 6.94076129,33.6964802 6.87728927,33.2964112 C6.81381725,32.8963421 6.41243215,32.7105035 6.64298218,32.7105035 Z" id="Combined-Shape-Copy" fill-rule="nonzero" transform="translate(4.748299, 35.348447) scale(-1, 1) rotate(-270.000000) translate(-4.748299, -35.348447) "></path>
                <rect id="Rectangle-5" x="4.22071013" y="11.6069529" width="1.05517753" height="18.9931956"></rect>
                <polygon id="Rectangle-5-Copy" points="4.22071013 28.4897934 6.3310652 28.4897934 6.03992308 30.6001485 4.52218943 30.4120382"></polygon>
            </g>
        </g>
    </g>
</svg>